name C:\Users\antoi\Documents\MyRepositories\upper-imu-dc\Results\main_tracking\Case_78\FLX01_linearAccelerations_bodyFrame.mot
datacolumns 4
datarows 47
range 4.37000000 4.83000000
endheader 
time	radius_imu_x	radius_imu_y	radius_imu_z	
          4.37000000	         -4.10637303	         -6.14324389	          4.76737099	
          4.38000000	         -4.14563439	         -6.03204492	          4.85910397	
          4.39000000	         -4.18248406	         -5.91874799	          4.94692860	
          4.40000000	         -4.21580281	         -5.80303658	          5.03130344	
          4.41000000	         -4.24463476	         -5.68462506	          5.11300902	
          4.42000000	         -4.26829125	         -5.56328434	          5.19286174	
          4.43000000	         -4.28622215	         -5.43886141	          5.27149932	
          4.44000000	         -4.29812222	         -5.31117567	          5.34914970	
          4.45000000	         -4.30383052	         -5.18011273	          5.42563694	
          4.46000000	         -4.30346785	         -5.04553703	          5.50048254	
          4.47000000	         -4.29752581	         -4.90728850	          5.57318617	
          4.48000000	         -4.28693671	         -4.76519553	          5.64342172	
          4.49000000	         -4.27308622	         -4.61909576	          5.71115558	
          4.50000000	         -4.25763280	         -4.46886422	          5.77662730	
          4.51000000	         -4.24238037	         -4.31443555	          5.84026873	
          4.52000000	         -4.22904580	         -4.15579227	          5.90263549	
          4.53000000	         -4.21925071	         -3.99295186	          5.96441970	
          4.54000000	         -4.21442240	         -3.82593915	          6.02653190	
          4.55000000	         -4.21539380	         -3.65476932	          6.09018585	
          4.56000000	         -4.22269854	         -3.47945109	          6.15691752	
          4.57000000	         -4.23623163	         -3.29999668	          6.22850275	
          4.58000000	         -4.25539374	         -3.11644775	          6.30682776	
          4.59000000	         -4.27919374	         -2.92889305	          6.39374121	
          4.60000000	         -4.30641048	         -2.73749471	          6.49090228	
          4.61000000	         -4.33587426	         -2.54252649	          6.59963839	
          4.62000000	         -4.36641656	         -2.34440598	          6.72080388	
          4.63000000	         -4.39702640	         -2.14368017	          6.85469478	
          4.64000000	         -4.42663989	         -1.94100102	          7.00096772	
          4.65000000	         -4.45405683	         -1.73707550	          7.15859576	
          4.66000000	         -4.47821834	         -1.53260887	          7.32590586	
          4.67000000	         -4.49838282	         -1.32827141	          7.50063236	
          4.68000000	         -4.51390434	         -1.12469280	          7.68008170	
          4.69000000	         -4.52457866	         -0.92244673	          7.86132266	
          4.70000000	         -4.53058019	         -0.72204666	          8.04139310	
          4.71000000	         -4.53231900	         -0.52394589	          8.21745014	
          4.72000000	         -4.53038344	         -0.32854132	          8.38687363	
          4.73000000	         -4.52558624	         -0.13618213	          8.54734084	
          4.74000000	         -4.51882032	          0.05282220	          8.69688958	
          4.75000000	         -4.51095364	          0.23820738	          8.83404953	
          4.76000000	         -4.50261063	          0.41976773	          8.95800581	
          4.77000000	         -4.49401848	          0.59738332	          9.06873628	
          4.78000000	         -4.48499978	          0.77101857	          9.16700348	
          4.79000000	         -4.47498078	          0.94071381	          9.25417894	
          4.80000000	         -4.46302007	          1.10656140	          9.33194008	
          4.81000000	         -4.44782939	          1.26867567	          9.40196067	
          4.82000000	         -4.42825626	          1.42717919	          9.46575779	
          4.83000000	         -4.40411270	          1.58220706	          9.52473675	
